<?xml version="1.0" standalone="no"?>
<!DOCTYPE svg PUBLIC "-//W3C//DTD SVG 20010904//EN"
 "http://www.w3.org/TR/2001/REC-SVG-20010904/DTD/svg10.dtd">
<svg version="1.0" xmlns="http://www.w3.org/2000/svg"
 width="512.000000pt" height="512.000000pt" viewBox="0 0 512.000000 512.000000"
 preserveAspectRatio="xMidYMid meet">

<g transform="translate(0.000000,512.000000) scale(0.100000,-0.100000)"
fill="#000000" stroke="none">
<path d="M1814 5101 c-148 -42 -270 -167 -308 -316 -14 -50 -16 -144 -16 -607
l0 -548 -548 0 c-463 0 -557 -2 -607 -16 -152 -39 -280 -167 -320 -319 -23
-89 -23 -1381 1 -1470 39 -152 167 -280 319 -320 50 -13 146 -15 607 -15 l548
0 0 -548 c0 -463 2 -557 16 -607 28 -109 96 -201 197 -266 105 -68 113 -69
855 -69 404 0 680 4 713 10 159 30 302 166 344 325 13 50 15 146 15 607 l0
548 548 0 c463 0 557 2 607 16 155 40 285 171 319 324 24 103 24 1357 0 1460
-34 153 -164 284 -319 324 -50 14 -144 16 -607 16 l-548 0 0 548 c0 596 -2
617 -57 712 -38 64 -103 130 -165 167 -105 63 -101 63 -853 62 -618 0 -686 -2
-741 -18z m1481 -208 c47 -25 85 -64 111 -113 18 -33 19 -75 24 -662 l5 -628
28 -27 27 -28 628 -5 c619 -5 628 -5 667 -27 47 -25 85 -64 111 -113 18 -33
19 -71 19 -730 0 -659 -1 -697 -19 -730 -26 -49 -64 -88 -111 -113 -39 -22
-48 -22 -667 -27 l-628 -5 -27 -28 -28 -27 -5 -628 c-5 -619 -5 -628 -27 -667
-25 -47 -64 -85 -113 -111 -33 -18 -71 -19 -730 -19 -659 0 -697 1 -730 19
-49 26 -88 64 -113 111 -22 39 -22 48 -27 667 l-5 628 -28 27 -27 28 -628 5
c-587 5 -629 6 -662 24 -49 26 -88 64 -113 111 -22 40 -22 42 -22 735 0 659 1
697 19 730 26 49 64 88 111 113 39 22 48 22 667 27 l628 5 27 28 28 27 5 628
c5 587 6 629 24 662 35 66 87 109 156 131 14 4 331 7 705 6 676 -2 680 -2 720
-24z"/>
</g>
</svg>
